# xmcd CD database file
#
# Track frame offsets:
#	150
#	12748
#	25356
#	37962
#	50965
#	65340
#	77505
#	89016
#	102064
#	115497
#	128014
#	141366
#	154298
#	166894
#	179215
#	190889
#	203319
#	214870
#
# Disc length: 3017 seconds
#
# Revision: 0
# Processed by: cddbd v1.5.2PL0 Copyright (c) Steve Scherf et al.
# Submitted via: CDex 1.51
#
DISCID=050bc712
DTITLE=Big Joe Williams - Baby Please Don't Go
DYEAR=1935
DGENRE=Blues
TTITLE0=BABY PLEASE DON'T GO
TTITLE1=STACK OF DOLLARS
TTITLE2=MELLOW APPLES
TTITLE3=WILD COW MOAN
TTITLE4=P-VINE BLUES
TTITLE5=BAD AND WEAK HEARTED BLUES
TTITLE6=KING BISCUIT STOMP
TTITLE7=I'M HIGHWAY MAN
TTITLE8=BANTA ROSTER BLUES
TTITLE9=MEAN STEPFATHER BLUES
TTITLE10=HOUSE LADY BLUES
TTITLE11=DON'T YOU LEAVE ME HERE
TTITLE12=JIVIN' WOMAN
TTITLE13=MAMA DON'T ALLOW ME
TTITLE14=JUANITA
TTITLE15=OVERHAULING BLUES
TTITLE16=WHISTLIN' PINES
TTITLE17=SHE LEFT ME A MULE
EXTD=YEAR: 1935
EXTT0=
EXTT1=
EXTT2=
EXTT3=
EXTT4=
EXTT5=
EXTT6=
EXTT7=
EXTT8=
EXTT9=
EXTT10=
EXTT11=
EXTT12=
EXTT13=
EXTT14=
EXTT15=
EXTT16=
EXTT17=
PLAYORDER=
